<?xml version="1.0" standalone="no"?><!DOCTYPE svg PUBLIC "-//W3C//DTD SVG 1.1//EN" "http://www.w3.org/Graphics/SVG/1.1/DTD/svg11.dtd"><svg t="1544104439057" class="icon" style="" viewBox="0 0 1024 1024" version="1.1" xmlns="http://www.w3.org/2000/svg" p-id="12379" xmlns:xlink="http://www.w3.org/1999/xlink" width="200" height="200"><defs><style type="text/css"></style></defs><path d="M512 512m-512 0a512 512 0 1 0 1024 0 512 512 0 1 0-1024 0Z" fill="#FDDEDE" p-id="12380"></path><path d="M512 241.777778a270.222222 270.222222 0 1 0 270.222222 270.222222 270.222222 270.222222 0 0 0-270.222222-270.222222z" fill="#F65B5B" p-id="12381"></path><path d="M512 342.129778a30.264889 30.264889 0 0 1 30.279111 30.264889L531.512889 573.155556h-0.199111a19.441778 19.441778 0 0 1-38.627556 0l-0.085333-1.137778c0-0.398222-0.071111-0.753778-0.071111-1.152v-0.341334l-10.766222-198.087111A30.264889 30.264889 0 0 1 512 342.129778z m0 339.740444a30.421333 30.421333 0 1 1 30.392889-30.421333A30.392889 30.392889 0 0 1 512 681.870222z" fill="#FFFFFF" p-id="12382"></path></svg>