<?xml version="1.0" standalone="no"?><!DOCTYPE svg PUBLIC "-//W3C//DTD SVG 1.1//EN" "http://www.w3.org/Graphics/SVG/1.1/DTD/svg11.dtd"><svg t="1544018917474" class="icon" style="" viewBox="0 0 1024 1024" version="1.1" xmlns="http://www.w3.org/2000/svg" p-id="17052" xmlns:xlink="http://www.w3.org/1999/xlink" width="200" height="200"><defs><style type="text/css"></style></defs><path d="M512 0C229.230769 0 0 229.230769 0 512s229.230769 512 512 512 512-229.230769 512-512S794.769231 0 512 0z m0 919.384615C287.003077 919.384615 104.615385 736.996923 104.615385 512S287.003077 104.615385 512 104.615385s407.384615 182.387692 407.384615 407.384615-182.387692 407.384615-407.384615 407.384615z" fill="#D8F5E3" p-id="17053"></path><path d="M512 104.615385C287.003077 104.615385 104.615385 287.003077 104.615385 512s182.387692 407.384615 407.384615 407.384615 407.384615-182.387692 407.384615-407.384615S736.996923 104.615385 512 104.615385z m217.181538 324.221538l-221.538461 231.384615a36.923077 36.923077 0 0 1-50.707692 0.923077L322.88 539.076923a36.923077 36.923077 0 1 1 49.723077-54.596923l108.307692 98.609231 196.590769-207.003077a36.928 36.928 0 0 1 51.692308 52.750769z" fill="#63D68E" p-id="17054"></path></svg>